PathFileType	4	(X/Y/Z)	TVC_60_BWA01_walk_RCNL2025.trc
DataRate	CameraRate	NumFrames	NumMarkers	Units	OrigDataRate	OrigDataStartFrame	OrigNumFrames
100	100	5	27	mm	100	145	384
Frame#	Time	R_Shoulder			L_Shoulder			C7			J_Notch			R_Elbow			L_Elbow			R_Wrist			L_Wrist			R_Asis			L_Asis			R_Psis			L_Psis			Sacral			Thoracic			Sternum			R_Thigh_Lateral			R_Knee_Lateral			R_Shank_Lateral			R_Ankle_Lateral			R_Heel			R_Toe			L_Thigh_Lateral			L_Knee_Lateral			L_Shank_Lateral			L_Ankle_Lateral			L_Heel			L_Toe		
		X1	Y1	Z1	X2	Y2	Z2	X3	Y3	Z3	X4	Y4	Z4	X5	Y5	Z5	X6	Y6	Z6	X7	Y7	Z7	X8	Y8	Z8	X9	Y9	Z9	X10	Y10	Z10	X11	Y11	Z11	X12	Y12	Z12	X13	Y13	Z13	X14	Y14	Z14	X15	Y15	Z15	X16	Y16	Z16	X17	Y17	Z17	X18	Y18	Z18	X19	Y19	Z19	X20	Y20	Z20	X21	Y21	Z21	X22	Y22	Z22	X23	Y23	Z23	X24	Y24	Z24	X25	Y25	Z25	X26	Y26	Z26	X27	Y27	Z27
145	1.44000000	81.113838	1294.979492	27.300394	63.905350	1324.067505	-324.896393	12.828012	1376.883667	-147.532486	127.004128	1249.635498	-154.537323	114.660347	967.997803	118.992668	8.663329	981.781433	-377.960938	274.091080	790.617035	105.212425	83.642593	762.330231	-423.650467	116.601006	893.900024	-2.257794	118.683113	886.736450	-290.155334	-60.936390	885.197205	-91.799324	-57.935566	877.453613	-200.942459	-59.435978	881.325409	-146.370892	-38.482006	1166.667847	-152.292664	160.372040	1057.436401	-144.791992	11.820836	583.840149	64.930717	-29.088505	427.260681	-13.433369	-158.658157	246.668045	7.777770	-260.781616	109.153244	-70.468559	-297.556152	124.516350	-120.515770	-150.253922	42.464211	-73.472725	133.252289	607.254517	-346.466339	236.948120	446.542633	-273.774628	252.621262	253.982285	-302.139771	284.070892	57.051826	-227.657715	240.566498	54.505871	-182.633652	412.149597	49.631096	-219.112839
146	1.45000000	91.080994	1295.560181	25.439400	72.375504	1324.244019	-326.679657	21.935646	1377.072998	-149.178024	136.481018	1250.263062	-156.536453	122.066666	968.440430	117.759552	18.138063	981.690186	-379.150665	280.345612	790.090942	104.639782	93.287846	762.293121	-424.814880	127.857422	893.989868	-3.991688	128.964050	887.483398	-291.593506	-50.083466	885.326599	-92.702789	-47.477455	877.911621	-201.954163	-48.780460	881.619110	-147.328476	-28.702051	1166.707642	-153.371185	170.724396	1058.276978	-146.817993	22.722321	584.121887	64.407021	-18.182125	427.268921	-12.817185	-151.935471	249.570007	8.631818	-256.829071	113.698959	-69.107681	-293.209351	130.369919	-119.105812	-148.921860	42.509972	-73.289368	142.639954	607.504456	-347.524811	246.373566	446.463623	-274.626678	259.225494	253.438461	-302.356750	285.676819	56.606743	-227.250717	241.952286	54.939919	-182.490997	413.971649	46.739246	-218.022034
147	1.46000000	101.169365	1296.275269	23.556503	80.812782	1324.530762	-328.465240	31.083731	1377.371826	-150.819855	145.980698	1250.994629	-158.567139	129.333817	968.988953	116.487099	27.584520	981.699951	-380.343079	286.203354	789.476624	104.116875	103.000893	762.402130	-426.041946	139.078491	894.166565	-5.776989	139.185425	888.436829	-293.044281	-39.261562	885.557861	-93.580620	-37.076290	878.526001	-202.949524	-38.168926	882.041931	-148.265072	-18.924206	1166.879395	-154.414536	181.075058	1059.235474	-148.875381	34.072193	584.423828	63.889297	-6.624547	427.244019	-12.128188	-144.633484	252.695953	9.572530	-252.279785	118.533333	-67.683174	-288.105927	136.573624	-117.681175	-147.456512	42.563435	-73.129402	152.545654	608.122742	-348.627899	255.564133	446.493652	-275.539612	265.608398	253.089294	-302.719055	287.140320	56.391872	-226.933838	243.200714	55.460033	-182.458038	415.567169	44.582554	-217.088486
148	1.47000000	111.357750	1297.113525	21.662748	89.227142	1324.921753	-330.243469	40.266037	1377.774414	-152.451828	155.492722	1251.817871	-160.614944	136.462860	969.636719	115.176949	37.001724	981.807800	-381.538544	291.670731	788.777710	103.640656	112.780624	762.653900	-427.328812	150.226318	894.427551	-7.603203	149.317688	889.578552	-294.509644	-28.500864	885.884399	-94.434341	-26.756126	879.285278	-203.926559	-27.628495	882.584839	-149.180450	-9.161208	1167.179077	-155.425064	191.398026	1060.292603	-150.948364	45.866688	584.732605	63.388515	5.602563	427.178955	-11.378344	-136.722870	256.065796	10.604934	-247.073303	123.660278	-66.199600	-282.156403	143.131470	-116.248611	-145.861862	42.663662	-72.981926	162.852890	609.021057	-349.789001	264.430176	446.591888	-276.503235	271.657990	252.888626	-303.197662	288.438080	56.354412	-226.687286	244.296021	56.013374	-182.494980	416.905945	43.093079	-216.324722
149	1.48000000	121.622650	1298.060791	19.769371	97.629486	1325.408569	-332.005127	49.475918	1378.273682	-154.068146	165.006317	1252.718506	-162.665131	143.454437	970.375610	113.831383	46.390106	982.009216	-382.738342	296.755997	787.998657	103.208118	122.625626	763.042755	-428.672043	161.264236	894.768738	-9.457956	159.333572	890.884399	-295.991394	-17.831099	886.297363	-95.266663	-16.539961	880.175049	-204.884476	-17.185530	883.236206	-150.075569	0.574484	1167.600220	-156.405930	201.667435	1061.426758	-153.021042	58.089523	585.033325	62.911186	18.511431	427.068176	-10.584675	-128.166183	259.691193	11.726829	-241.149750	129.079163	-64.666267	-275.280304	150.040558	-114.813705	-144.135895	42.863983	-72.832161	173.360565	610.108948	-351.032074	272.876526	446.715729	-277.507843	277.273987	252.787796	-303.760742	289.553772	56.440834	-226.493225	245.226913	56.556747	-182.566559	417.977234	42.167610	-215.731689
